#N canvas 606 254 942 720 10;
#X declare -stdpath blokas;
#X obj 343 190 gigaverb~ 300 15;
#X obj 232 535 dac~;
#X obj 214 77 adc~;
#X floatatom 573 21 5 1 300 0 - roomsize -, f 5;
#X msg 573 59 roomsize \$1;
#X msg 573 539 bypass \$1;
#X msg 573 433 dry \$1;
#X floatatom 573 395 5 -90 0 0 - dry -, f 5;
#X floatatom 573 280 5 -90 0 0 - early -, f 5;
#X msg 573 306 early \$1;
#X msg 573 588 clear;
#X floatatom 573 338 5 -90 0 0 - tail -, f 5;
#X floatatom 573 213 5 0 1 0 - bandwidth -, f 5;
#X msg 573 251 bandwidth \$1;
#X msg 573 366 tail \$1;
#X floatatom 573 146 5 0.1 360 0 - revtime -, f 5;
#X msg 573 174 revtime \$1;
#X floatatom 573 88 5 0 1 0 - damping -, f 5;
#X msg 573 117 damping \$1;
#X floatatom 573 458 5 -90 0 0 - wet -, f 5;
#X msg 573 490 wet \$1;
#X obj 759 48 declare -stdpath blokas;
#X obj 759 126 ktrl roomsize;
#X obj 759 165 ktrl damping;
#X obj 759 204 ktrl revtime;
#X obj 759 243 ktrl bandwidth;
#X obj 759 282 ktrl early;
#X obj 760 263 ktrl tail;
#X obj 634 21 r roomsize;
#X obj 636 87 r damping;
#X obj 633 212 r bandwidth;
#X obj 637 280 r early;
#X obj 636 338 r tail;
#X obj 636 395 r dry;
#X obj 636 458 r wet;
#X obj 759 399 ktrl bypass;
#X obj 636 506 r bypass;
#X obj 642 567 r clear_btn;
#N canvas 447 50 556 627 preset 0;
#X obj 63 29 inlet preset;
#X floatatom 63 53 5 0 0 0 - - -, f 5;
#X obj 63 81 sel 0 1 2 3 4;
#X msg 63 118 \; roomsize 5 \; damping 0.62 \; revtime 0.6 \; bandwidth
0.48 \; early -11 \; tail -13 \; dry -6 \; wet 0;
#X msg 213 118 \; roomsize 16 \; damping 0.18 \; revtime 1.24 \; bandwidth
0.95 \; early -15 \; tail -17 \; dry -3 \; wet 0;
#X msg 63 298 \; roomsize 80 \; damping 0.41 \; revtime 4.85 \; bandwidth
0.69 \; early -9 \; tail -11 \; dry -3 \; wet 0;
#X msg 213 298 \; roomsize 143 \; damping 0.71 \; revtime 7 \; bandwidth
0.34 \; early -11 \; tail -9 \; dry -3 \; wet 0;
#X msg 63 458 \; roomsize 300 \; damping 0.43 \; revtime 103 \; bandwidth
0.51 \; early -26 \; tail -20 \; dry -5 \; wet 0;
#X obj 383 33 loadbang;
#X msg 383 58 0;
#X connect 0 0 1 0;
#X connect 1 0 2 0;
#X connect 2 0 3 0;
#X connect 2 1 4 0;
#X connect 2 2 5 0;
#X connect 2 3 6 0;
#X connect 2 4 7 0;
#X connect 8 0 9 0;
#X connect 9 0 1 0;
#X restore 103 644 pd preset;
#X obj 103 606 hradio 15 1 0 5 empty empty empty 0 -8 0 10 -262144
-1 -1 0;
#X text 191 616 preset: 0) bathroom 1) living room 2) church 3) cathedral
4) canyon;
#X obj 103 567 loadbang;
#X obj 81 190 delwrite~ \$0-delay 5000;
#X obj 90 285 delread4~ \$0-delay;
#X floatatom 90 247 5 0 0 0 - - -, f 5;
#X obj 759 438 ktrl clear_btn;
#X obj 759 477 ktrl delaytime;
#X obj 143 247 r delaytime;
#X obj 90 370 *~;
#X obj 90 331 r mix2verb;
#X obj 191 370 *~;
#X obj 759 87 monorack dlyvrb;
#X obj 759 516 ktrl dlydry;
#X obj 759 555 ktrl dlywet;
#X obj 759 321 ktrl revdry;
#X obj 759 360 ktrl revwet;
#X obj 762 457 ktrl dlyfbk;
#X obj 33 331 r dlyfbk;
#X obj 263 337 *~;
#X obj 759 594 ktrl mix2verb;
#X obj 759 633 ktrl dlystereo;
#X obj 263 409 *~;
#X obj 286 381 r dlystereo;
#X obj 206 497 r~ left;
#X obj 283 497 r~ right;
#X obj 191 405 s~ left;
#X obj 286 273 r dlydry;
#X obj 263 436 s~ right;
#X obj 90 405 s~ tovrb;
#X obj 191 331 r dlywet;
#X obj 342 125 r~ tovrb;
#X obj 33 370 *~;
#X obj 636 146 r revtime;
#X obj 34 405 s~ todly;
#X obj 81 128 r~ todly;
#X obj 353 408 *~;
#X obj 353 435 s~ left;
#X obj 376 380 r vrbstereo;
#X obj 836 322 ktrl vrbstereo;
#X connect 0 0 75 0;
#X connect 0 1 1 1;
#X connect 2 0 42 0;
#X connect 2 0 58 0;
#X connect 2 1 0 0;
#X connect 3 0 4 0;
#X connect 4 0 0 0;
#X connect 5 0 0 0;
#X connect 6 0 0 0;
#X connect 7 0 6 0;
#X connect 8 0 9 0;
#X connect 9 0 0 0;
#X connect 10 0 0 0;
#X connect 11 0 14 0;
#X connect 12 0 13 0;
#X connect 13 0 0 0;
#X connect 14 0 0 0;
#X connect 15 0 16 0;
#X connect 16 0 0 0;
#X connect 17 0 18 0;
#X connect 18 0 0 0;
#X connect 19 0 20 0;
#X connect 20 0 0 0;
#X connect 28 0 4 0;
#X connect 29 0 18 0;
#X connect 30 0 13 0;
#X connect 31 0 9 0;
#X connect 32 0 14 0;
#X connect 33 0 6 0;
#X connect 34 0 20 0;
#X connect 36 0 5 0;
#X connect 37 0 10 0;
#X connect 39 0 38 0;
#X connect 41 0 39 0;
#X connect 43 0 48 0;
#X connect 43 0 50 0;
#X connect 43 0 71 0;
#X connect 44 0 43 0;
#X connect 47 0 43 0;
#X connect 48 0 68 0;
#X connect 49 0 48 1;
#X connect 50 0 61 0;
#X connect 50 0 65 0;
#X connect 57 0 71 1;
#X connect 58 0 61 0;
#X connect 58 0 65 0;
#X connect 61 0 67 0;
#X connect 62 0 61 1;
#X connect 63 0 1 0;
#X connect 64 0 1 1;
#X connect 66 0 58 1;
#X connect 69 0 50 1;
#X connect 70 0 0 0;
#X connect 71 0 73 0;
#X connect 72 0 16 0;
#X connect 74 0 42 0;
#X connect 75 0 76 0;
#X connect 77 0 75 1;
