#N canvas 606 254 942 720 10;
#X declare -stdpath blokas;
#X obj 34 189 gigaverb~ 300 15;
#X obj 34 223 dac~;
#X obj 34 100 adc~;
#X floatatom 443 21 5 1 300 0 - roomsize -, f 5;
#X msg 443 48 roomsize \$1;
#X msg 443 536 bypass \$1;
#X msg 443 422 dry \$1;
#X floatatom 443 395 5 -90 0 0 - dry -, f 5;
#X floatatom 443 265 5 -90 0 0 - early -, f 5;
#X msg 443 292 early \$1;
#X msg 443 577 clear;
#X floatatom 443 330 5 -90 0 0 - tail -, f 5;
#X floatatom 443 202 5 0 1 0 - bandwidth -, f 5;
#X msg 443 229 bandwidth \$1;
#X msg 443 357 tail \$1;
#X floatatom 443 141 5 0.1 360 0 - revtime -, f 5;
#X msg 443 168 revtime \$1;
#X floatatom 443 80 5 0 1 0 - damping -, f 5;
#X msg 443 107 damping \$1;
#X floatatom 443 457 5 -90 0 0 - wet -, f 5;
#X msg 443 484 wet \$1;
#X obj 629 51 declare -stdpath blokas;
#X obj 630 90 monorack gigaverb;
#X obj 630 127 ktrl roomsize;
#X obj 630 158 ktrl damping;
#X obj 630 189 ktrl revtime;
#X obj 630 222 ktrl bandwidth;
#X obj 630 253 ktrl early;
#X obj 630 284 ktrl tail;
#X obj 630 317 ktrl dry;
#X obj 630 348 ktrl wet;
#X obj 504 19 r roomsize;
#X obj 506 77 r damping;
#X obj 506 140 r revtime;
#X obj 503 201 r bandwidth;
#X obj 507 262 r early;
#X obj 506 325 r tail;
#X obj 506 390 r dry;
#X obj 506 457 r wet;
#X obj 630 379 ktrl bypass;
#X obj 630 409 ktrl clear_btn;
#X obj 508 513 r bypass;
#X obj 512 568 r clear_btn;
#N canvas 447 50 556 627 preset 0;
#X obj 63 29 inlet preset;
#X floatatom 63 53 5 0 0 0 - - -, f 5;
#X obj 63 81 sel 0 1 2 3 4;
#X msg 63 118 \; roomsize 5 \; damping 0.62 \; revtime 0.6 \; bandwidth
0.48 \; early -11 \; tail -13 \; dry -6 \; wet 0;
#X msg 213 118 \; roomsize 16 \; damping 0.18 \; revtime 1.24 \; bandwidth
0.95 \; early -15 \; tail -17 \; dry -3 \; wet 0;
#X msg 63 298 \; roomsize 80 \; damping 0.41 \; revtime 4.85 \; bandwidth
0.69 \; early -9 \; tail -11 \; dry -3 \; wet 0;
#X msg 213 298 \; roomsize 143 \; damping 0.71 \; revtime 7 \; bandwidth
0.34 \; early -11 \; tail -9 \; dry -3 \; wet 0;
#X msg 63 458 \; roomsize 300 \; damping 0.43 \; revtime 103 \; bandwidth
0.51 \; early -26 \; tail -20 \; dry -5 \; wet 0;
#X obj 383 33 loadbang;
#X msg 383 58 0;
#X connect 0 0 1 0;
#X connect 1 0 2 0;
#X connect 2 0 3 0;
#X connect 2 1 4 0;
#X connect 2 2 5 0;
#X connect 2 3 6 0;
#X connect 2 4 7 0;
#X connect 8 0 9 0;
#X connect 9 0 1 0;
#X restore 101 641 pd preset;
#X obj 101 617 hradio 15 1 0 5 empty empty empty 0 -8 0 10 -262144
-1 -1 0;
#X text 191 611 preset: 0) bathroom 1) living room 2) church 3) cathedral
4) canyon;
#X obj 103 567 loadbang;
#X connect 0 0 1 0;
#X connect 0 1 1 1;
#X connect 2 0 0 0;
#X connect 2 1 0 0;
#X connect 3 0 4 0;
#X connect 4 0 0 0;
#X connect 5 0 0 0;
#X connect 6 0 0 0;
#X connect 7 0 6 0;
#X connect 8 0 9 0;
#X connect 9 0 0 0;
#X connect 10 0 0 0;
#X connect 11 0 14 0;
#X connect 12 0 13 0;
#X connect 13 0 0 0;
#X connect 14 0 0 0;
#X connect 15 0 16 0;
#X connect 16 0 0 0;
#X connect 17 0 18 0;
#X connect 18 0 0 0;
#X connect 19 0 20 0;
#X connect 20 0 0 0;
#X connect 31 0 4 0;
#X connect 32 0 18 0;
#X connect 33 0 16 0;
#X connect 34 0 13 0;
#X connect 35 0 9 0;
#X connect 36 0 14 0;
#X connect 37 0 6 0;
#X connect 38 0 20 0;
#X connect 41 0 5 0;
#X connect 42 0 10 0;
#X connect 44 0 43 0;
#X connect 46 0 44 0;
